<?xml version="1.0" encoding="utf-8"?>
<!-- Generator: Adobe Illustrator 22.1.0, SVG Export Plug-In . SVG Version: 6.00 Build 0)  -->
<svg version="1.1" id="Layer_1" xmlns="http://www.w3.org/2000/svg" xmlns:xlink="http://www.w3.org/1999/xlink" x="0px" y="0px"
	 viewBox="0 0 176 76" style="enable-background:new 0 0 176 76;" xml:space="preserve">
<style type="text/css">
	.st0{fill:#FF0000;}
	.st1{fill:#FF931E;}
	.st2{fill:#0000FF;}
</style>
<g>
	<path class="st0" d="M17.3,16.9l5.9,2c-0.4,1.8-1,3.3-1.9,4.6s-1.9,2.1-3.2,2.8c-1.3,0.6-2.9,0.9-4.8,0.9c-2.4,0-4.3-0.4-5.8-1.1
		s-2.8-2.1-3.9-4S2,17.6,2,14.6c0-4,1-7,2.9-9.1C6.8,3.4,9.5,2.3,13,2.3c2.7,0,4.9,0.6,6.5,1.8s2.7,3.1,3.5,5.6L17,11.2
		c-0.2-0.7-0.4-1.3-0.7-1.6c-0.4-0.6-0.8-1-1.4-1.3c-0.5-0.3-1.2-0.5-1.8-0.5c-1.5,0-2.7,0.7-3.5,2c-0.6,1-0.9,2.6-0.9,4.7
		c0,2.7,0.4,4.5,1.1,5.5c0.7,1,1.8,1.5,3.1,1.5c1.3,0,2.3-0.4,2.9-1.2C16.5,19.5,17,18.4,17.3,16.9z"/>
	<path d="M25.3,18.1c0-2.6,0.8-4.8,2.4-6.5s3.8-2.6,6.6-2.6c3.2,0,5.5,1,7.2,3c1.3,1.6,1.9,3.6,1.9,6c0,2.7-0.8,4.8-2.4,6.5
		c-1.6,1.7-3.8,2.6-6.7,2.6c-2.5,0-4.6-0.7-6.1-2.1C26.3,23.2,25.3,20.9,25.3,18.1z M31.4,18c0,1.5,0.3,2.7,0.9,3.4
		c0.6,0.7,1.3,1.1,2.1,1.1c0.9,0,1.6-0.4,2.1-1.1s0.8-1.9,0.8-3.5c0-1.5-0.3-2.6-0.8-3.4c-0.6-0.7-1.3-1.1-2.1-1.1
		c-0.9,0-1.6,0.4-2.2,1.1C31.7,15.4,31.4,16.5,31.4,18z"/>
	<path d="M48.5,2.7h6.1v23.9h-6.1V2.7z"/>
	<path d="M77.1,26.7h-5.6v-2.8c-0.8,1.2-1.7,2-2.5,2.5c-0.9,0.5-1.9,0.7-3.2,0.7c-1.7,0-3-0.5-3.9-1.6c-0.9-1.1-1.4-2.8-1.4-5v-11
		h6.1v9.5c0,1.1,0.2,1.9,0.5,2.3c0.4,0.5,0.9,0.7,1.5,0.7c0.7,0,1.3-0.3,1.8-0.9c0.5-0.6,0.7-1.7,0.7-3.3V9.3h6V26.7z"/>
	<path d="M82.8,9.3h5.6v2.5c0.8-1.1,1.6-1.8,2.5-2.3c0.8-0.4,1.8-0.7,3-0.7c1.3,0,2.3,0.2,3,0.7c0.7,0.5,1.3,1.2,1.8,2.2
		c0.9-1.1,1.8-1.9,2.6-2.3c0.8-0.4,1.7-0.6,2.9-0.6c1.7,0,3,0.6,4,1.7s1.4,2.8,1.4,5.2v10.9h-6.1v-9.9c0-0.8-0.1-1.4-0.4-1.7
		c-0.4-0.6-0.9-0.9-1.5-0.9c-0.7,0-1.3,0.3-1.7,0.8c-0.4,0.6-0.7,1.5-0.7,2.7v8.9h-6.1v-9.5c0-0.8,0-1.3-0.1-1.5
		c-0.1-0.4-0.4-0.8-0.7-1.1s-0.7-0.4-1.1-0.4c-0.7,0-1.3,0.3-1.7,0.9c-0.4,0.6-0.7,1.5-0.7,2.8v8.8h-6.1V9.3z"/>
	<path d="M115.2,2.7h6.1V11c0.6-0.7,1.3-1.2,2.1-1.6s1.6-0.5,2.5-0.5c1.9,0,3.5,0.8,4.8,2.3c1.3,1.5,1.9,3.7,1.9,6.5
		c0,1.9-0.3,3.6-0.9,5c-0.6,1.4-1.4,2.5-2.4,3.2c-1,0.7-2.1,1.1-3.4,1.1c-1.1,0-2-0.3-2.9-0.8c-0.7-0.4-1.4-1.1-2.2-2.2v2.6h-5.7
		V2.7z M121.3,18c0,1.5,0.3,2.6,0.8,3.2s1.2,1,1.9,1c0.7,0,1.3-0.3,1.8-1c0.5-0.7,0.7-1.8,0.7-3.3c0-1.4-0.2-2.4-0.7-3
		c-0.5-0.6-1.1-1-1.7-1c-0.8,0-1.5,0.3-2,1C121.5,15.6,121.3,16.6,121.3,18z"/>
	<path d="M154.1,26.7h-5.6v-2.8c-0.8,1.2-1.7,2-2.5,2.5c-0.9,0.5-1.9,0.7-3.2,0.7c-1.7,0-3-0.5-3.9-1.6c-0.9-1.1-1.4-2.8-1.4-5v-11
		h6.1v9.5c0,1.1,0.2,1.9,0.5,2.3c0.4,0.5,0.9,0.7,1.5,0.7c0.7,0,1.3-0.3,1.8-0.9c0.5-0.6,0.7-1.7,0.7-3.3V9.3h6V26.7z"/>
	<path d="M158.7,21.9l6-0.6c0.2,0.8,0.6,1.3,1,1.7c0.4,0.3,1,0.5,1.8,0.5c0.8,0,1.4-0.2,1.9-0.6c0.3-0.3,0.5-0.6,0.5-1.1
		c0-0.5-0.2-0.8-0.7-1.1c-0.3-0.2-1.2-0.4-2.6-0.7c-2.1-0.4-3.6-0.8-4.4-1.1c-0.8-0.3-1.5-0.9-2.1-1.7c-0.6-0.8-0.8-1.7-0.8-2.8
		c0-1.1,0.3-2.1,0.9-3c0.6-0.8,1.4-1.4,2.5-1.8c1.1-0.4,2.5-0.6,4.3-0.6c1.9,0,3.3,0.2,4.2,0.5c0.9,0.3,1.6,0.8,2.2,1.5
		c0.6,0.7,1.1,1.6,1.5,2.7l-5.7,0.6c-0.1-0.6-0.4-1-0.7-1.2c-0.5-0.3-1-0.5-1.7-0.5c-0.7,0-1.2,0.1-1.5,0.4c-0.3,0.3-0.5,0.6-0.5,1
		c0,0.4,0.2,0.7,0.6,1s1.3,0.4,2.6,0.6c2,0.2,3.5,0.6,4.5,1c1,0.4,1.7,1.1,2.2,1.9s0.8,1.7,0.8,2.7c0,1-0.3,2-0.8,2.9
		s-1.4,1.7-2.6,2.3c-1.2,0.6-2.8,0.8-4.8,0.8c-2.9,0-4.9-0.5-6.2-1.4C159.8,24.8,159,23.5,158.7,21.9z"/>
	<path class="st1" d="M0.7,42.8h7l4.9,17.2l4.8-17.2h6.8l-8.1,23.9H8.9L0.7,42.8z"/>
	<path d="M26.8,42.8h6v4.5h-6V42.8z M26.8,49.4h6v17.3h-6V49.4z"/>
	<path d="M53.3,42.8v23.9h-5.7v-2.6c-0.8,1.1-1.5,1.8-2.2,2.2c-0.9,0.5-1.8,0.8-2.9,0.8c-2.1,0-3.8-0.9-4.9-2.7
		c-1.1-1.8-1.7-4-1.7-6.5c0-2.9,0.6-5.1,1.9-6.6c1.3-1.5,2.8-2.3,4.8-2.3c0.9,0,1.8,0.2,2.6,0.5s1.4,0.9,2,1.6v-8.3H53.3z M47.2,58
		c0-1.4-0.3-2.4-0.8-3c-0.5-0.7-1.2-1-2-1c-0.7,0-1.3,0.3-1.8,1c-0.5,0.6-0.7,1.7-0.7,3.2c0,1.4,0.2,2.4,0.7,3.1
		c0.5,0.7,1.1,1,1.8,1c0.8,0,1.4-0.3,1.9-1C47,60.6,47.2,59.5,47.2,58z"/>
	<path d="M74.5,59.7H62.3c0.1,1.1,0.4,1.9,0.8,2.4c0.6,0.8,1.3,1.1,2.3,1.1c0.6,0,1.2-0.2,1.7-0.5c0.3-0.2,0.7-0.6,1.1-1.1l6,0.6
		c-0.9,1.7-2,3-3.3,3.7s-3.1,1.1-5.5,1.1c-2.1,0-3.7-0.3-4.9-1c-1.2-0.6-2.2-1.7-3-3.1c-0.8-1.4-1.2-3.1-1.2-5
		c0-2.7,0.8-4.9,2.4-6.6s3.8-2.5,6.5-2.5c2.3,0,4,0.4,5.3,1.1s2.3,1.8,3,3.3c0.7,1.4,1,3.3,1,5.6V59.7z M68.3,56.6
		c-0.1-1.3-0.4-2.2-0.9-2.8s-1.2-0.8-2-0.8c-1,0-1.7,0.4-2.3,1.3c-0.4,0.5-0.6,1.3-0.7,2.3H68.3z"/>
	<path d="M76.5,58.1c0-2.6,0.8-4.8,2.4-6.5s3.8-2.6,6.6-2.6c3.2,0,5.5,1,7.2,3c1.3,1.6,1.9,3.6,1.9,6c0,2.7-0.8,4.8-2.4,6.5
		c-1.6,1.7-3.8,2.6-6.7,2.6c-2.5,0-4.6-0.7-6.1-2.1C77.4,63.3,76.5,61,76.5,58.1z M82.5,58.1c0,1.5,0.3,2.7,0.9,3.4
		c0.6,0.7,1.3,1.1,2.1,1.1c0.9,0,1.6-0.4,2.1-1.1s0.8-1.9,0.8-3.5c0-1.5-0.3-2.6-0.8-3.4c-0.6-0.7-1.3-1.1-2.1-1.1
		c-0.9,0-1.6,0.4-2.2,1.1C82.8,55.5,82.5,56.6,82.5,58.1z"/>
	<path class="st2" d="M108,42.8h8.8l3.4,14.6l3.4-14.6h8.8v23.9H127V48.5l-4.2,18.2h-5l-4.2-18.2v18.2H108V42.8z"/>
	<path d="M141.9,55l-5.8-0.7c0.2-1.1,0.5-2,0.9-2.6s1-1.2,1.8-1.7c0.6-0.3,1.3-0.6,2.3-0.8c1-0.2,2-0.3,3.1-0.3
		c1.8,0,3.3,0.1,4.4,0.3c1.1,0.2,2,0.7,2.7,1.4c0.5,0.5,0.9,1.2,1.2,2.1c0.3,0.9,0.4,1.8,0.4,2.6v7.7c0,0.8,0,1.5,0.1,1.9
		c0.1,0.5,0.3,1.1,0.6,1.8h-5.7c-0.2-0.4-0.4-0.8-0.4-1s-0.1-0.6-0.2-1.1c-0.8,0.8-1.6,1.4-2.4,1.8c-1.1,0.5-2.3,0.7-3.7,0.7
		c-1.9,0-3.3-0.5-4.3-1.4c-1-1-1.5-2.1-1.5-3.5c0-1.3,0.4-2.4,1.1-3.2c0.7-0.8,2-1.5,3.9-1.9c2.3-0.5,3.7-0.9,4.4-1.1
		c0.7-0.2,1.4-0.5,2.1-0.8c0-0.8-0.2-1.4-0.5-1.7S145.8,53,145,53c-1,0-1.7,0.2-2.2,0.5C142.4,53.8,142.1,54.3,141.9,55z
		 M147.1,58.5c-0.8,0.3-1.7,0.6-2.6,0.9c-1.2,0.4-2,0.7-2.3,1.1c-0.3,0.4-0.5,0.8-0.5,1.2c0,0.5,0.2,0.9,0.5,1.3
		c0.3,0.3,0.8,0.5,1.5,0.5c0.7,0,1.3-0.2,1.9-0.5s1-0.8,1.2-1.3c0.2-0.5,0.4-1.2,0.4-2V58.5z"/>
	<path d="M157,73.3V49.4h5.7V52c0.8-1.1,1.5-1.8,2.2-2.2c0.9-0.5,1.9-0.8,2.9-0.8c2.1,0,3.7,0.9,4.9,2.7c1.2,1.8,1.7,4,1.7,6.6
		c0,2.9-0.6,5.1-1.9,6.6c-1.3,1.5-2.8,2.3-4.8,2.3c-0.9,0-1.8-0.2-2.5-0.5c-0.8-0.3-1.5-0.9-2.1-1.5v8.3H157z M163,58.1
		c0,1.4,0.3,2.4,0.8,3.1c0.5,0.7,1.2,1,2,1c0.7,0,1.3-0.3,1.8-1s0.7-1.7,0.7-3.2c0-1.4-0.2-2.4-0.7-3.1c-0.5-0.7-1.1-1-1.8-1
		c-0.8,0-1.4,0.3-1.9,1C163.3,55.6,163,56.7,163,58.1z"/>
</g>
</svg>
